<svg width="162mm" height="114mm" version="1.1" viewBox="0 0 162 114" xmlns="http://www.w3.org/2000/svg">
 <g transform="translate(0,-183)" fill="#0f0">
  <path d="m20.394 252.72c0.3027 0.64648 0.6781 1.2502 1.0725 1.8451 0.45195 0.58339 0.93223 1.1442 1.3997 1.7155 0.68114 0.77856 1.4392 1.4916 2.1804 2.2151 1.0082 0.92513 2.1394 1.7111 3.2507 2.5107 1.2889 0.9268 2.659 1.7414 4.0379 2.5314 1.4168 0.8475 2.8897 1.5944 4.374 2.3192 1.5146 0.74225 3.0833 1.3797 4.677 1.9379 1.4373 0.51754 2.9071 0.92933 4.3721 1.3614 1.592 0.48471 3.2089 0.88129 4.8284 1.2651 1.9243 0.46441 3.8788 0.78933 5.8402 1.0579 2.0094 0.28662 4.0261 0.51117 6.0521 0.64218 1.8781 0.11893 3.7506 0.30266 5.6243 0.47287 1.7878 0.17644 3.5713 0.39075 5.3572 0.58428 1.789 0.24076 3.5905 0.35205 5.3937 0.41651 1.8421 0.0518 3.6823 0.14841 5.5247 0.19615 1.6749 0.0392 3.3503 0.0401 5.0255 0.0448 1.5547 7.1e-4 3.1094-4.8e-4 4.664-3e-3 1.3981-0.0658 2.7955-0.13554 4.1949-0.16892 1.4361-0.0414 2.8735-5e-3 4.3089-0.0619 1.5229-0.0494 3.0394-0.18701 4.5549-0.33575 1.4738-0.10606 2.9434-0.21765 4.4117-0.38246 1.376-0.15109 2.7597-0.20196 4.1398-0.30518 1.3101-0.15549 2.6247-0.2564 3.9429-0.31167 1.1745-0.0563 2.3359-0.18114 3.4935-0.3788 0.96465-0.11917 1.8984-0.38796 2.8255-0.66583 0.94362-0.25986 1.8714-0.57341 2.8126-0.84017 0.9193-0.27685 1.826-0.59228 2.7361-0.89721 0.86297-0.29619 1.7318-0.57385 2.5672-0.94106 0.78238-0.33513 1.5545-0.68952 2.3344-1.031 0.71308-0.3618 1.4365-0.70053 2.1644-1.0323 1.1141-0.48918 3.8498-2.0724-0.70847 0.50227 0.95246-0.53786 1.9049-1.0757 2.8574-1.6135 0.0966-0.0497 0.38413-0.20284 0.2898-0.1491-0.77133 0.43947-3.0905 1.749-2.321 1.3064 0.94224-0.54188 1.8923-1.0705 2.8392-1.6044 0.0842-0.0474 0.33824-0.18734 0.25416-0.13967-0.7776 0.44083-1.5565 0.87945-2.3348 1.3192 7.4622-4.1793 0.63031-0.35243 0.50008-0.28152-0.0884 0.0481 0.16658-0.11216 0.24834-0.17035 0.24726-0.17598 0.48686-0.35882 0.73865-0.5288 0.54922-0.34775 1.0991-0.69362 1.6273-1.0719 0.48042-0.32408 0.95719-0.65382 1.4393-0.97559 0.36418-0.25785 0.69234-0.5624 1.0003-0.88239 0.3295-0.31844 0.65362-0.6436 0.99759-0.94705 0.37769-0.29039 0.6669-0.66311 0.93891-1.0468 0.27934-0.40478 0.51438-0.83647 0.74326-1.2701 0.1787-0.37147 0.39583-0.72273 0.58032-1.091 0.15654-0.35468 0.30276-0.70511 0.51293-1.0333 0.23603-0.2491 0.33017-0.5464 0.40967-0.86815 0.13512-0.38359 0.49627-0.63636 0.77385-0.92387 0.50525-0.54008 1.0519-1.0401 1.5898-1.5481 0.39907-0.34242 0.80143-0.67426 1.016-1.1595 0.12342-0.36466 0.11854-0.75255 0.12044-1.1323-0.0329-0.37363 0.0324-0.73532 0.10034-1.1003 0.0376-0.33457 0.15867-0.64986 0.2241-0.97893 0.0942-0.36781 0.15952-0.74382 0.27424-1.1062 0.10036-0.35221 0.21558-0.70089 0.30154-1.0569 0.0631-0.39553 0.10925-0.79119 0.18606-1.1848 0.0786-0.38941 0.10266-0.7858 0.11694-1.1816 2e-3 -0.39371 0.0272-0.78904-7e-3 -1.1818-0.0512-0.41239-0.25494-0.78725-0.42856-1.1611-0.14571-0.43343-0.3422-0.84157-0.53168-1.2575-0.14893-0.35854-0.36304-0.68264-0.55308-1.0201-0.22476-0.29097-0.38419-0.62521-0.61666-0.90957-0.2917-0.37378-0.62242-0.712-0.91452-1.086-0.22517-0.35687-0.51659-0.661-0.78195-0.98744-0.27417-0.3591-0.64114-0.63277-0.94884-0.96218-0.33733-0.31134-0.63651-0.65636-1.0005-0.93895-0.28655-0.24644-0.6016-0.4839-0.95348-0.63262-0.26184-0.21306-0.59347-0.23003-0.90207-0.32722-0.37522-0.11641-0.76727-0.14899-1.1578-0.1693-0.40564-0.0153-0.81168-0.0132-1.2175-0.0128-0.40371 0.0179-0.81436-0.0389-1.2119 0.04-0.35645 0.0671-0.73594 0.14862-1.0482 0.33732-0.31824 0.15978-0.66407 0.2518-0.99073 0.39098-0.21246 0.0479-0.38801 0.16856-0.5744 0.27069-0.0661 0.0363-0.26789 0.13872-0.20235 0.10145 2.6817-1.5246 3.1739-1.8407 2.2426-1.2504-9.2242 5.1891 1.6739-0.92764-0.46081 0.27004-0.91581 0.51382-1.8201 1.0485-2.7513 1.5348-0.83624 0.43675 1.6438-0.92453 2.4662-1.386 0.0408-0.023-0.081 0.0469-0.12154 0.0704-0.16949 0.0696-0.22004 0.36987-0.0517 0.10731 0.75481-0.77376 0.0585-0.0416-2.3745 1.2904-0.0502 0.0274 0.0892-0.0714 0.13257-0.10836 0.0515-0.0439 0.10381-0.0872 0.1524-0.13429 0.13325-0.12908 0.19272-0.20689 0.31181-0.34818 0.30774-0.33286 0.44978-0.75486 0.64859-1.1488 0.23431-0.36754 0.30852-0.78904 0.39346-1.2061 0.10606-0.39471 0.16712-0.79686 0.19982-1.2032 0.0253-0.39713 0.0248-0.79526 0.0255-1.193-0.0295-0.41237 0.047-0.81554 0.11123-1.2205 0.0613-0.3919 0.0767-0.78837 0.0863-1.1841 6e-3 -0.39945 5e-3 -0.79898 5e-3 -1.1985-4.8e-4 -0.40044-9.1e-4 -0.80088-9.1e-4 -1.2013 0.0187-0.34916-0.0762-0.6855-0.18421-1.0141-0.19614-0.41657-0.43027-0.82724-0.70309-1.201-0.33576-0.54557-0.76178-1.0242-1.2126-1.4792-0.40662-0.43824-0.87949-0.79958-1.3702-1.1402-0.38-0.33887-0.78333-0.64664-1.1958-0.94608-0.54667-0.36396-1.0863-0.73749-1.6277-1.1088-0.55105-0.35522-1.0954-0.71944-1.6807-1.0202-0.53813-0.26823-1.1144-0.46726-1.699-0.61323-0.43735-0.0548-0.86084-0.14773-1.2907-0.24005-0.36457-0.0685-0.73674-0.0755-1.1066-0.0824-0.40291-4e-3 -0.80587-3e-3 -1.2088-2e-3 -0.13499 0.0151-0.27258-0.0145-0.40758 7.1e-4 -0.89916 0.10025-3.5646 1.8596 1.9707-1.2084-0.049 0.0289-0.0979 0.0578-0.14692 0.0868-0.91414 0.51963-1.8346 1.0287-2.7424 1.5589-0.80508 0.47015 3.2598-1.8131 2.4341-1.3788-0.93577 0.49208-1.8372 1.045-2.7644 1.5526-0.24262 0.0818-0.12969 0.0295-0.34021 0.15366-0.2899 0.14817-0.62065 0.23848-0.88955 0.42124-0.97719 0.47571-0.42103 0.20841 2.3378-1.3306 0.0429-0.0239-0.0797 0.057-0.12061 0.084-0.11529 0.0761-0.12323 0.0874-0.18296-0.0361-0.041-0.1037-5e-3 -0.16476 0.0777-0.23913 0.0283-0.0254 0.13311-0.0744 0.1-0.0555-2.5404 1.4432-3.2436 2.0053-2.3865 1.3308 0.24282-0.16312 0.43427-0.35969 0.5628-0.61902 0.16415-0.29306 0.26987-0.61185 0.4281-0.90797 0.20982-0.32085 0.34975-0.65744 0.42353-1.0306 0.0611-0.43835 0.0613-0.8819 0.0633-1.3235 5e-3 -0.39142 0.0204-0.78217-0.0984-1.1597-0.11841-0.31838-0.28029-0.62433-0.50087-0.88578-0.21481-0.24728-0.41353-0.51438-0.65882-0.73443-0.27625-0.27154-0.53714-0.56153-0.83136-0.81451-0.24571-0.25459-0.51594-0.47843-0.81427-0.67098-0.3581-0.2134-0.71078-0.44561-1.0898-0.62316-0.38201-0.1946-0.792-0.34441-1.2048-0.46549-0.44179-0.0898-0.83129-0.30472-1.2701-0.40887-0.52177-0.091-1.0084-0.29261-1.5278-0.39834-0.59831-0.0733-1.1723-0.25773-1.7622-0.36972-0.58055-0.16757-1.1763-0.2594-1.7779-0.31028-0.45525-0.0323-0.89926-0.14226-1.354-0.18962-0.44071-0.0377-0.88355-0.0372-1.3256-0.0406-0.49411-2e-3 -0.98821 7.1e-4 -1.4823 2e-3 -0.385-0.0423-0.7436 0.0863-1.1185 0.14393-0.36653-9e-3 -0.67109 0.14842-0.9993 0.27909-0.38486 0.091-0.76436 0.20073-1.1518 0.28315-1.2534 0.18535-1.9121 0.99515 2.1324-1.6454 0.0949-0.062 0.21721-0.0688 0.32243-0.11183 0.0681-0.023 0.14013-0.0371 0.20434-0.0692 0.0709-0.0355 0.12872-0.0924 0.19745-0.13168 0.0778-0.0445 0.31907-0.16381 0.24123-0.11935-4.2591 2.4324-2.5596 1.4743-1.6582 0.89956 0.70698-0.46715 1.3887-0.9709 2.0337-1.5179 0.52715-0.45293 1.0414-0.91568 1.5089-1.4284 0.33972-0.33825 0.57327-0.75103 0.75837-1.1859 0.11315-0.34096 0.21871-0.7113 0.12626-1.067-0.10738-0.31685-0.30898-0.60242-0.59191-0.78925-0.28393-0.27007-0.60765-0.4588-0.97642-0.59342-0.41146-0.18669-0.83425-0.33768-1.2539-0.50431-0.47439-0.15558-0.9471-0.31458-1.4214-0.47071-0.49515-0.15038-0.99017-0.27035-1.5052-0.3327-0.51726-0.0502-1.0379-0.0499-1.5571-0.0517-0.52838-2e-3 -1.0568 2e-3 -1.5851 4e-3 -0.47393 4.8e-4 -0.94785 4.8e-4 -1.4218 9e-4 -0.50439 1.4e-4 -1.0088-2e-3 -1.5132-2e-3 -0.51275-0.0333-1.0141 0.0749-1.5201 0.13686-0.48977 7e-3 -0.951 0.15068-1.4198 0.26853-0.57373 0.12417-1.1601 0.19783-1.7265 0.35323-0.50245 0.11661-1.0043 0.23448-1.5104 0.33659-0.3191 6e-3 -0.5817 0.1817-0.87282 0.27902-0.81893 0.27377 0.34802-0.15268-0.47587 0.15396-0.47876 0.10097-0.89931 0.34301-1.3541 0.50741-0.418 0.19134-0.85436 0.34381-1.3032 0.44737-0.40974 0.12523-0.78572 0.30221-1.1705 0.48372 0.11519-0.0906-0.59078 0.31307-0.44525 0.23095 7.8645-4.4378-6.3429 3.5671 1.6982-0.96329-7.4676 4.2251-0.28896 0.16265-0.33958 0.19435-0.89682 0.56156-1.8564 1.0216-2.757 1.5773-0.79169 0.48845 1.6181-0.92025 2.43-1.3755 0.12921-0.0725-0.13353 0.0868-0.31877 0.19946-5.9737 3.4024-1.5606 0.88533-0.32416 0.19402 0.4175-0.23344-0.35502 0.25443-0.4144 0.28872-0.89955 0.51946-1.8068 1.0259-2.7103 1.5388-0.33152 0.0285-0.5575-0.22086-0.7666-0.43767-0.32295-0.36641-0.67179-0.70324-1.0414-1.0232-0.48428-0.42194-1.0281-0.77503-1.5654-1.1282-0.52901-0.36546-1.108-0.63852-1.6863-0.91637-0.48058-0.19377-0.97768-0.33724-1.4656-0.51382-0.57005-0.18244-1.1706-0.20383-1.7644-0.22561-0.72352-0.0897-1.4492-0.1503-2.1776-0.18314-0.69018-0.0259-1.381-0.0278-2.0715-0.0277-0.62146 0.0165-1.2468-0.0328-1.8653 0.0357-0.58755 0.10364-1.178 0.21176-1.7617 0.33799-0.64218 0.16964-1.2764 0.35914-1.8869 0.61897-0.54876 0.24512-1.1042 0.4751-1.6549 0.71584-0.07846 0.0419-0.15468 0.0883-0.23538 0.12596-0.25018 0.11673-0.51142 0.21429-0.76352 0.32732-0.08061 0.0362-0.1587 0.0775-0.23804 0.11628 0.794-0.445 1.588-0.88998 2.382-1.335-1.2366 0.80427-2.5423 1.4873-3.8309 2.2119-0.07268 0.0403-0.14535 0.0806-0.21803 0.12087 0.78932-0.44585 1.5763-0.89579 2.3679-1.3375 0.07471-0.0417-0.14515 0.0904-0.21668 0.13716-0.24603 0.16085-0.48566 0.33033-0.72356 0.50247-0.47307 0.32532-0.92082 0.68112-1.3166 1.0946-0.27742 0.35766-0.62227 0.66387-0.87601 1.0384-0.19574 0.34283-0.22681 0.73323-0.24773 1.1174-0.01282 0.43042-0.01008 0.86117-0.0082 1.2917-0.0049 0.54006 0.19003 1.0235 0.4102 1.5066 0.29373 0.57944 0.66136 1.1128 1.0522 1.6316 0.46967 0.57449 0.86547 1.203 1.3453 1.769 0.39498 0.55325 0.87544 1.0336 1.3904 1.4776 0.43783 0.38324 0.91192 0.69887 1.4307 0.96433 0.38049 0.14425 0.76631 0.27541 1.1686 0.34717 0.05124 9e-3 0.10159 0.029 0.15373 0.0285 0.10997-9e-4 0.19428-0.13549 0.11595-0.0914-3.8642 2.1732-2.1996 2.3592-2.5991 1.3206-0.20074-0.23475-0.45566-0.4086-0.65882-0.64598-0.25887-0.24655-0.5582-0.44618-0.81505-0.69678-0.25302-0.18735-0.51131-0.37501-0.79113-0.52417-0.34687-0.16962-0.70165-0.28443-1.0843-0.3428-0.36167-0.10711-0.69343-0.2759-1.0616-0.36297-0.3956-0.0542-0.78612-0.0811-1.1778-0.15973-0.4318-0.0604-0.84469-0.18837-1.2765-0.25185-0.47526-0.0616-0.9552-0.0671-1.4338-0.0719-0.4865 0.0265-0.96186-0.0809-1.4429-0.13584-0.49662-0.0513-0.99649-0.0571-1.4953-0.0633-0.52846-4e-3 -1.0569-2e-3 -1.5854-3e-3 -0.49456 4.8e-4 -0.98911 2e-3 -1.4837 3e-3 -0.50546-7.1e-4 -1.0109-2e-3 -1.5164-2e-3 -0.48219 2e-3 -0.96438 2.4e-4 -1.4466 4.8e-4 -0.452 1.8e-4 -0.904 2e-3 -1.356 4.7e-4 -0.39261 0.0911-0.80902 0.0832-1.1576 0.29611-0.35084 0.16316-0.69236 0.34611-1.0476 0.50061 0.18738-0.19318-0.84794 0.40976-0.58559 0.26264 4.0272-2.2586 2.9629-1.7233 2.0771-1.1249-0.27286 0.1702-0.53936 0.3533-0.77597 0.57021-0.2102 0.18561-0.42071 0.37437-0.61069 0.58044-0.17799 0.22997-0.32152 0.48053-0.45886 0.7354-0.10434 0.31283-0.25888 0.60451-0.39236 0.90537-0.13291 0.36541-0.25469 0.73279-0.32777 1.1145-0.06321 0.39061-0.06851 0.78693-0.07335 1.1815 0.0095 0.38559-0.0242 0.77413 0.01647 1.1582 0.06068 0.36701 0.24528 0.69887 0.39734 1.0353 0.15486 0.42414 0.43264 0.78681 0.66252 1.1726 0.20672 0.32101 0.42119 0.61771 0.73498 0.8441 0.34076 0.20931 0.7037 0.33002 1.0981 0.39159 0.44056 0.0501 0.88524 0.0455 1.3281 0.0458 0.43412-9e-4 0.86824-4e-3 1.3024-4e-3 0.12823-0.0409 0.26806-0.0368 0.39639-0.077 0.05847-0.0183 0.22015-0.10639 0.16682-0.0765-5.8388 3.2685-2.8156 1.8159-2.2438 1.1782 0.17263-0.30535 0.18967-0.63785 0.03241-0.94861-0.25178-0.35223-0.70465-0.51783-1.0988-0.67853-0.5818-0.1903-1.1582-0.39748-1.7444-0.57527-0.78235-0.16956-1.5703-0.31561-2.356-0.47111-0.75338-0.15334-1.5055-0.29115-2.2723-0.35895-0.84562-0.0581-1.694-0.0577-2.5412-0.0623-1.1469-4e-3 -2.2937-3e-3 -3.4406-2e-3 -1.326-2e-3 -2.652-9e-4 -3.9779-2e-3 -1.2652 8e-3 -2.5305-0.0483-3.7891 0.0978-0.82731 0.14941-1.675 0.17627-2.5014 0.32346-0.52511 0.12446-1.0745 0.10668-1.5991 0.22138-0.49306 0.0823-0.98656 0.14046-1.4776 0.23326-0.54822 0.18137-1.1218 0.23007-1.6711 0.40777-0.51197 0.13749-1.0173 0.29972-1.5327 0.42426-0.40672 0.15302-0.83085 0.24512-1.2481 0.36417 0.10284-0.12537-0.48126 0.26678-0.36105 0.1999 0.8107-0.45097 3.241-1.8064 2.4214-1.3714-0.79888 0.42402-2.058 1.261-3.116 1.7308-0.1862 0.0996-0.37469 0.19513-0.56428 0.28825-0.06557 0.0322-0.26389 0.12494-0.20055 0.0887 0.8029-0.45976 3.2089-1.8426 2.4202-1.3597-0.90099 0.55176-1.8382 1.0441-2.7574 1.5662 4.4942-2.5546 2.5073-1.6066 1.69-0.77496-0.25339 0.27548-0.45573 0.58306-0.63085 0.91046-0.13838 0.32006-0.29483 0.62984-0.38094 0.96823-0.04795 0.34353-0.08446 0.68232-0.23036 1.0014-0.16141 0.29279-0.20703 0.61764-0.2362 0.94418-0.02714 0.43159-0.02518 0.86426-0.02471 1.2965 4.36e-4 0.51391 1.44e-4 1.0278-0.0012 1.5417 3.15e-4 0.50499 0.0029 1.01 0.0044 1.5149-0.02029 0.3781 0.0058 0.74473 0.08143 1.1146 0.09522 0.32537 0.28118 0.59894 0.52353 0.83529 0.27896 0.29867 0.64395 0.50344 0.97332 0.74457 0.46048 0.2699 0.94465 0.4938 1.4107 0.75348 0.63263 0.32401 1.2853 0.61171 1.9715 0.8055 0.67668 0.24783 1.3883 0.38777 2.0582 0.6518 0.44147 0.1474 0.87221 0.32652 1.3167 0.46422 0.343 0.1223 0.64194 0.32383 0.99402 0.42191 0.36679 0.0401 0.66944 0.11275 0.84657 0.45399 0.10675 0.40006-0.1932 0.62399-0.46634 0.86031-0.04843 0.0349-0.09326 0.0753-0.1453 0.10474-9.3295 5.2822 1.261-0.7647-0.37637 0.19891-0.91557 0.53882-1.8453 1.0542-2.7742 1.5705-0.12224 0.068-0.25725 0.11125-0.38208 0.17448-0.50012 0.25077-0.98946 0.52733-1.5032 0.751-0.09154 0.0445-0.18314 0.0888-0.27459 0.13355-0.61975 0.30283 0.03984-0.0242-0.57391 0.29989-0.09202 0.0486-0.3695 0.19151-0.27922 0.13984 3.6969-2.1157 2.8723-1.6331 1.9848-1.111-0.52771 0.33052-1.0424 0.68046-1.5671 1.0157-0.32187 0.18824-0.57656 0.38401-0.69743 0.73859-0.09237 0.31659-0.01001 0.53066 0.29448 0.66228 0.41241 0.18444 0.84005 0.34336 1.2709 0.48164 0.46218 0.17478 0.9337 0.3754 1.184 0.8136 0.04167 0.16903 0.07909 0.22141 0.01541 0.40055-0.07202 0.20259-0.2908 0.39261-0.47149 0.49757-0.94118 0.54677-1.8922 1.077-2.8383 1.6156-0.79994 0.33772-1.6305 0.58031-2.4696 0.8018-1.1692 0.33641-2.3496 0.62882-3.528 0.93194-1.2211 0.29415-2.4383 0.59607-3.6517 0.9208-0.86393 0.22521-1.6855 0.5731-2.5153 0.89345-0.097401 0.0442-0.198 0.0821-0.2922 0.13255-0.081777 0.0438-0.31534 0.19463-0.23438 0.14942 0.7932-0.44306 3.1679-1.7806 2.3715-1.3432-0.93369 0.51282-1.8545 1.0479-2.7833 1.5693-0.80954 0.45449 1.6155-0.91515 2.4257-1.3686 0.051838-0.029-0.10029 0.0635-0.15044 0.0953-0.33671 0.16521-0.55927 0.44734-0.78982 0.72749-0.19702 0.29295-0.35994 0.60853-0.52584 0.91955-0.15755 0.32413-0.18175 0.68304-0.20048 1.0359-0.028245 0.39568-0.030186 0.76815 0.13384 1.1346 0.25439 0.42712 0.59722 0.80217 0.97389 1.1283 0.46911 0.37422 1.0252 0.61164 1.549 0.90007 0.53711 0.27572 1.1216 0.44366 1.6732 0.68817 0.4623 0.21735 0.96597 0.30531 1.4556 0.43978 0.44673 0.0941 0.89902 0.12521 1.3472 0.21378 0.49849 0.19012 1.0257 0.25307 1.5544 0.29582 0.71798 0.0426 1.4376 0.0384 2.1565 0.041 0.62204 9e-3 1.2373 0.0103 1.8531-0.0771 0.40497-0.0851 0.82701-0.18037 1.2165-0.32542 0.3962-0.13374 0.78347-0.3042 1.153-0.49926-5.7295 3.2256-0.37165 0.21162 0.39941-0.23327 0.79738-0.46009-1.5998 0.9118-2.4056 1.3573-0.05542 0.0306 0.10201-0.0746 0.15302-0.11196l2.8016-1.1296c-0.86375 0.97036 0.26175-0.26122-2.9012 1.7518-0.13093 0.0833 7.2108-4.1075-0.40944 0.2227-0.38652 0.1752-0.77421 0.35111-1.1848 0.46592-0.41056 0.10649-0.81499 0.24456-1.2416 0.2749-0.6205 0.0633-1.2431 0.0397-1.8662 0.0401-0.72678-2e-3 -1.4547-6e-3 -2.1798-0.0582-0.53705-0.0575-1.0613-0.15846-1.5786-0.31333-0.45377-0.0816-0.91914-0.0999-1.3624-0.23428-0.4973-0.13937-1.0052-0.2455-1.4699-0.47896-0.56384-0.23271-1.1512-0.41692-1.6858-0.71332-0.54675-0.2927-1.119-0.55006-1.5939-0.9541-0.39591-0.36513-0.7687-0.76454-1.0411-1.229-0.19408-0.40766-0.2443-0.80741-0.20367-1.2557 0.011426-0.38304 0.024463-0.77166 0.1468-1.1391 0.13829-0.33957 0.35841-0.63622 0.50141-0.97507 0.2069-0.30529 0.43649-0.62234 0.74533-0.83393 0.96713-0.55918 1.9476-1.0962 2.9079-1.6667 0.7891-0.46872-3.1919 1.8159-2.3931 1.3633 0.93249-0.52832 1.86-1.0651 2.7942-1.5906 0.17671-0.0994 0.35796-0.16599 0.54568-0.24273 0.8245-0.31936 1.6526-0.63515 2.5128-0.85084 1.2111-0.32343 2.4326-0.60126 3.6466-0.91305 1.1821-0.3013 2.3618-0.60882 3.5349-0.94238 0.83662-0.23245 1.6736-0.48697 2.4496-0.87875-0.77348 0.44245-1.5478 0.88352-2.3204 1.3274-0.07102 0.0408 0.14487-0.0768 0.21549-0.11823 0.07986-0.0469 0.35605-0.21256 0.41199-0.2876 0.01805-0.0242 0.0085-0.0595 0.01272-0.0892-0.18746-0.3675-0.69834-0.48218-1.0525-0.63215-0.44523-0.15477-0.89837-0.30156-1.315-0.52249-0.35351-0.23747-0.56502-0.56208-0.48502-0.99737 0.0729-0.41105 0.21915-0.74193 0.61928-0.93929 0.50636-0.36919 1.0689-0.66435 1.5737-1.038 1.4012-0.84747 2.8202-1.6744 4.3046-2.3737 0.50408-0.25285 1.0081-0.50536 1.5097-0.76282 0.12561-0.0594 0.49344-0.25466 0.37298-0.18575-0.80022 0.4578-3.2155 1.806-2.4044 1.3671 9.3731-5.0717-1.7061 0.74205 0.53033-0.26806 0.22263-0.14437 0.44428-0.31179 0.63452-0.49318-0.07007-0.22528-0.54018-0.14915-0.7084-0.25293-0.33753-0.12843-0.64719-0.31666-0.9939-0.42426-0.43641-0.16003-0.87427-0.31535-1.308-0.48245-0.6696-0.24116-1.3658-0.40562-2.0382-0.63997-0.69763-0.22112-1.3695-0.51319-2.0175-0.84998-0.48166-0.25642-0.97667-0.48905-1.4391-0.77936-0.3474-0.24398-0.71519-0.47207-1.0015-0.78752-0.27211-0.28647-0.49542-0.60124-0.61385-0.97976-0.08031-0.38927-0.13745-0.77077-0.103-1.1705 0.0014-0.50621 0.0039-1.0124 0.0036-1.5186-0.0022-0.51277-0.0038-1.0255-0.0056-1.5383-2.39e-4 -0.43753-0.0058-0.87529 0.0098-1.3126 0.01906-0.3531 0.04122-0.71315 0.1824-1.0433 0.1759-0.33948 0.25724-0.53907 0.26513-0.93728 0.06244-0.36883 0.20129-0.69454 0.35145-1.0341 0.15706-0.35795 0.35384-0.68291 0.59698-0.98955 0.90333-1.0583 2.2285-1.5841 3.4553-2.2517-5.3856 3.0617-0.65897 0.30163 1.1132-0.56849 0.22134-0.11718 0.39354-0.20856 0.34971-0.18345-0.80714 0.46241-3.2373 1.8348-2.4255 1.3803 0.99352-0.55629 2.0167-1.3571 3.1628-1.7142 0.41655-0.12036 0.83877-0.22078 1.2508-0.35644 0.50673-0.14074 1.0153-0.27477 1.5192-0.42533 0.56074-0.14641 1.1355-0.23432 1.6951-0.38695 0.49293-0.0876 0.99182-0.13627 1.4835-0.23188 0.5319-0.0635 1.0655-0.11404 1.5929-0.21042 0.8272-0.10166 1.6574-0.18116 2.4835-0.29238 1.262-0.1095 2.5285-0.0522 3.7941-0.0642 1.3289-9e-4 2.6578-4.7e-4 3.9867-5e-3 1.151-2e-3 2.3021-5e-3 3.4531-5e-3 0.85714 2e-3 1.716-9e-4 2.5704 0.0764 0.77042 0.0833 1.528 0.2324 2.2869 0.38551 0.79355 0.16131 1.5955 0.28844 2.3789 0.49281 0.59431 0.18764 1.1904 0.37229 1.7722 0.59542 0.45812 0.20737 0.94479 0.40633 1.2172 0.84793 0.20404 0.39435 0.24009 0.7815 0.10657 1.208-0.49199 1.2842-2.1979 1.8555-3.5377 1.9394-0.43364 9e-4 -0.86729 3e-3 -1.3009 7.1e-4 -0.45582-5e-3 -0.91571-3e-3 -1.3648-0.0899-0.42243-0.0989-0.82161-0.25775-1.1771-0.50774-0.32516-0.26658-0.57356-0.58483-0.79118-0.94125-0.23388-0.39498-0.51752-0.76594-0.67619-1.1994-0.17069-0.35901-0.36616-0.71648-0.44585-1.1077-0.06656-0.39519-0.02088-0.79895-0.03408-1.1983 0.0025-0.40785 0.0045-0.81683 0.05263-1.2225 0.05806-0.40188 0.17118-0.78366 0.29868-1.1682 0.10855-0.3155 0.29788-0.59426 0.38316-0.91568 0.05573-0.15296 0.13263-0.25917 0.20825-0.39864 0.07189-0.13259 0.09866-0.28499 0.2276-0.38456 0.13782-0.27077 0.37973-0.43449 0.57741-0.6591 0.26353-0.19346 0.48206-0.44169 0.76585-0.61312 1.2426-0.66513 2.3742-1.556 3.7006-2.0654 0.34828-0.17166 0.69987-0.33692 1.0539-0.49679 0.39751-0.11531 0.81615-0.17219 1.2293-0.19364 0.45164-2e-3 0.90327 1.9e-4 1.3549 4.8e-4 0.48165 2.3e-4 0.96329-9e-4 1.4449 4.7e-4 0.50679 7.1e-4 1.0136-7.2e-4 1.5204-2e-3 0.49262 4.7e-4 0.98523 2e-3 1.4778 9e-4 0.52998-2e-3 1.06-2e-3 1.5899 5e-3 0.50605 9e-3 1.013 0.0253 1.5156 0.0881 0.47328 0.0605 0.94484 0.13142 1.4241 0.11028 0.48841 0.0106 0.97823 0.0249 1.4607 0.10752 0.42971 0.0778 0.85114 0.19244 1.2841 0.25451 0.39699 0.0681 0.8043 0.0686 1.1938 0.17917 0.3515 0.10813 0.68393 0.27072 1.0464 0.3439 0.4006 0.0893 0.78206 0.23075 1.1439 0.42349 0.29038 0.17456 0.5768 0.36201 0.83077 0.58535 0.26975 0.24795 0.5778 0.45238 0.82762 0.72026 0.23042 0.25226 0.53603 0.43201 0.71616 0.72663 0.0068 0.0157 0.12014 0.26974 0.11069 0.27673-2.3744 1.7566-1.6243 1.9183-2.9192 1.6213-0.41671-0.10013-0.82885-0.23388-1.2137-0.4213-0.52264-0.29431-1.0055-0.6324-1.4556-1.0275-0.52236-0.45858-1.0072-0.95565-1.4118-1.5201-0.47311-0.577-0.88448-1.1997-1.3543-1.7797-0.40678-0.53453-0.78101-1.0894-1.0931-1.6836-0.23506-0.51907-0.45685-1.0338-0.47549-1.6122-0.0019-0.43397-0.0098-0.86798-0.0022-1.3019 0.01294-0.41987 0.03243-0.84582 0.18768-1.2426 0.20727-0.43846 0.5623-0.72088 0.85994-1.0995 0.36818-0.44806 0.80912-0.83182 1.2955-1.152 1.2199-0.93491 2.5702-1.6809 3.9453-2.3798-4.4961 2.5632-2.327 1.3765-1.3421 0.72103 1.3491-0.76494 2.6189-1.5568 4.0407-2.1465 0.55554-0.22618 1.0927-0.49142 1.6524-0.70782 0.62521-0.23865 1.2697-0.42612 1.9226-0.57672 0.59274-0.11289 1.1823-0.25573 1.7845-0.3087 0.62496-0.0294 1.2507-0.0101 1.8762-0.0135 0.69308 4e-3 1.3867 3e-3 2.079 0.0407 0.72742 0.0424 1.451 0.11799 2.1767 0.18077 0.61929 0.0311 1.2417 0.077 1.8278 0.29421 0.49317 0.18044 1.0069 0.30613 1.478 0.54134 0.58922 0.2829 1.1647 0.58736 1.7057 0.95397 0.54296 0.367 1.0994 0.72065 1.5899 1.1556 0.37864 0.32175 0.72339 0.67446 1.066 1.0328 0.17859 0.16694 0.32487 0.28993 0.55382 0.12937-3.269 1.8798-3.158 1.9193-2.221 1.2173 1.4843-1.112 5.6894-3.1133 0.4751-0.29326 0.97011-0.64071 2.1899-1.2563 3.0655-1.7773 0.79781-0.47469-3.2076 1.8714-2.4165 1.386 0.7645-0.46907 6.084-3.4859 0.33616-0.21777 9.2798-5.2455-1.6846 0.97658 0.65921-0.35848 0.93934-0.53507 1.8758-1.075 2.8171-1.6068 0.08075-0.0456 0.36994-0.18237 0.45847-0.22474 0.38506-0.18509 0.79243-0.31585 1.2024-0.43715 0.43797-0.13106 0.86339-0.29748 1.2835-0.47584 0.4454-0.18752 0.89249-0.36142 1.3577-0.49729 0.45353-0.15104 0.8947-0.34142 1.3739-0.40288 0.5007-0.11198 1.0037-0.21373 1.5009-0.34038 0.5746-0.12207 1.1551-0.21821 1.7257-0.35771 0.47503-0.12486 0.95586-0.20327 1.4464-0.24059 0.51151-0.0665 1.0225-0.13257 1.5402-0.1043 0.50566 4.8e-4 1.0113-2e-3 1.517-2e-3 0.47365 4.8e-4 0.94728 9e-5 1.4209-9e-4 0.52764-1e-5 1.0553-6e-5 1.5829 9e-4 0.52794 5e-3 1.058 0.0101 1.5817 0.0835 0.52439 0.0834 1.0336 0.21942 1.5399 0.37674 0.47562 0.16268 0.95525 0.31353 1.4295 0.48027 0.42527 0.15589 0.83763 0.33866 1.257 0.50911 0.37838 0.16643 0.72025 0.37837 1.0262 0.655 0.30681 0.25381 0.55433 0.5747 0.68729 0.94978 0.14084 0.41186 0.0722 0.8294-0.0425 1.2432-0.1598 0.46694-0.38871 0.91842-0.71697 1.2936-0.48931 0.50464-0.96093 1.0229-1.5154 1.4635-0.63538 0.5642-1.3132 1.0756-2.0176 1.5529-1.3063 0.90006-2.671 1.7988-4.1813 2.3077-1.6909 0.22856 1.276-1.7913 2.3546-1.8589 0.37803-0.0975 0.76422-0.17365 1.1267-0.32002 0.33553-0.13243 0.68053-0.18947 1.0386-0.23014 0.37958-0.073 0.75532-0.12803 1.1444-0.0988 0.49326 1.3e-4 0.98651 2.4e-4 1.4798 3e-3 0.45109 4e-3 0.90344 7e-3 1.3515 0.0644 0.44838 0.0617 0.89105 0.16233 1.344 0.18915 0.60488 0.0707 1.2 0.18842 1.7896 0.3389 0.58951 0.1271 1.1733 0.27798 1.7703 0.37102 0.51665 0.12444 1.0156 0.3084 1.5394 0.40567 0.43249 0.1272 0.83925 0.32285 1.2819 0.41892 0.41925 0.1449 0.84067 0.29333 1.2305 0.50501 0.38011 0.20294 0.75398 0.42124 1.1157 0.65384 0.2982 0.21239 0.58017 0.44194 0.83361 0.70549 0.28682 0.26477 0.55866 0.54524 0.83538 0.82011 0.24645 0.23867 0.4679 0.50283 0.68373 0.76806 0.23181 0.29703 0.41981 0.62717 0.55169 0.9788 0.1413 0.40483 0.15806 0.8204 0.14046 1.2458-2e-3 0.45433-3e-3 0.90943-0.0441 1.3623-0.0446 0.39693-0.1334 0.78652-0.3752 1.117-0.15658 0.299-0.31093 0.59347-0.42239 0.91337-0.0872 0.13723-0.1184 0.28921-0.20742 0.42486-0.11837 0.1804-0.0605 0.0606-0.20828 0.19959-0.0356 0.0335-0.0629 0.0746-0.0944 0.11197-0.97001 0.64911-0.15063 0.1041-2.8025 1.6448-0.17611 0.10231-0.32515 0.0766-0.45283-0.0849-0.12443-0.23717-0.11339-0.31154 0.1221-0.44775 2.6246-1.5179 1.7996-1.0754 2.8484-1.6357 0.30314-0.12411 0.59337-0.27759 0.89137-0.4131 0.11412-0.0484 0.44573-0.21562 0.33845-0.15389-0.80651 0.46404-3.2385 1.8351-2.4264 1.3806 9.2064-5.1517-1.7026 0.90059 0.45427-0.26504 1.7434-0.97198 2.1611-1.6579 3.7147-1.6134 0.40497-4.7e-4 0.81005-2e-3 1.2149 9e-3 0.38359 0.0148 0.76848 0.0382 1.1427 0.12905 0.42707 0.10095 0.86161 0.15293 1.2877 0.25779 0.59508 0.1739 1.1838 0.38198 1.7312 0.67244 0.5852 0.3199 1.1429 0.68138 1.6969 1.0503 0.54422 0.37349 1.0907 0.74319 1.6399 1.1096 0.4132 0.29649 0.80669 0.61326 1.192 0.94384 0.50061 0.35542 0.97842 0.73923 1.3968 1.1879 0.45577 0.46925 0.88474 0.96447 1.2379 1.5144 0.29075 0.39867 0.54614 0.83121 0.76073 1.2733 0.11977 0.35501 0.24047 0.71931 0.22718 1.0982 1.3e-4 0.40039 2.4e-4 0.80077 9.1e-4 1.2012 4.9e-4 0.40132 2e-3 0.80267-3e-3 1.204-6e-3 0.40673-0.0162 0.81431-0.0693 1.2183-0.0565 0.39356-0.16237 0.7809-0.13083 1.1813 1.4e-4 0.4037 2e-3 0.80761-0.0165 1.211-0.0246 0.41951-0.0681 0.83846-0.18083 1.2453-0.1116 0.42975-0.13326 0.88507-0.35403 1.2839-0.24925 0.37919-0.32995 0.83858-0.63779 1.1865-0.77411 1.1094-2.1204 2.0362-3.4349 2.2639-0.34528-0.12512-0.52319-0.43398-0.322-0.76989 0.74885-0.921 0.22524-0.30818 2.8376-1.6675 0.83398-0.43394-1.6339 0.92844-2.45 1.3941-0.0487 0.0278 0.0991-0.0528 0.14779-0.0806 0.91454-0.52123 1.8287-1.0431 2.742-1.5665 0.80664-0.46223-1.6147 0.92208-2.422 1.3831 1.2105-0.7347 2.4053-1.5346 3.7376-2.0384 0.33523-0.1182 0.66155-0.25825 0.98379-0.40719 0.36054-0.11744 0.71888-0.23478 1.1016-0.26011 0.41088-0.0192 0.82241-8e-3 1.2336-0.0112 0.41014 9e-4 0.82077 9e-4 1.2301 0.0298 0.40511 0.0355 0.80661 0.0963 1.1955 0.21773 0.33233 0.0795 0.64809 0.18157 0.93471 0.37166 0.3533 0.19204 0.68363 0.4267 0.98138 0.6948 0.36382 0.30153 0.68622 0.64314 1.0233 0.97247 0.31736 0.32966 0.68857 0.60963 0.96273 0.97861 0.27032 0.32585 0.55525 0.63762 0.78463 0.99441 0.29101 0.37338 0.62011 0.71282 0.91618 1.0819 0.23473 0.30244 0.41711 0.6396 0.64137 0.94982 0.19432 0.34543 0.41153 0.67813 0.56443 1.0448 0.18303 0.41632 0.38726 0.82078 0.52775 1.2538 0.18892 0.39966 0.403 0.80369 0.47593 1.2413 0.0617 0.40388 0.0245 0.81384 0.0281 1.2213-0.01 0.40901-0.0258 0.81913-0.0964 1.2232-0.0735 0.39667-0.15465 0.78725-0.18192 1.1907-0.0704 0.36927-0.19629 0.72014-0.28485 1.0846-0.12251 0.35061-0.19118 0.70815-0.29426 1.0653-0.047 0.33651-0.15918 0.65036-0.22337 0.97996-0.0563 0.35335-0.16928 0.69508-0.12623 1.0572 2e-3 0.4085 0.0102 0.82144-0.0761 1.2233-0.16063 0.55357-0.51119 0.95486-0.98167 1.2954-0.53359 0.50506-1.0871 0.99342-1.5821 1.5354-0.2036 0.19783-0.3771 0.45418-0.61009 0.62102-0.0364 0.0261-0.0834 0.0361-0.1183 0.0642-0.035 0.0282-0.0586 0.0678-0.0879 0.10168-0.12446 0.3226-0.11007 0.69595-0.36673 0.96523-0.26739 0.28178-0.41025 0.62462-0.53729 0.9846-0.1945 0.36535-0.38461 0.7288-0.58652 1.0905-0.21572 0.44894-0.46333 0.88481-0.73258 1.3046-0.2531 0.40345-0.53242 0.80669-0.89902 1.1186-0.35182 0.29237-0.67157 0.61376-1.0117 0.9185-0.30969 0.33506-0.63015 0.65211-0.98061 0.94645-0.48154 0.32476-0.9542 0.66193-1.4522 0.96263-0.50919 0.4049-1.0677 0.74314-1.6173 1.0919-0.2001 0.12306-0.31255 0.18635-0.50079 0.32498-0.0973 0.0716-0.3781 0.30685-0.48484 0.36976-0.91215 0.53768-5.962 3.4246-0.49476 0.29542-0.94201 0.53681-1.883 1.0753-2.826 1.6104-0.084 0.0476-0.33847 0.1859-0.25479 0.13778 0.77178-0.4439 3.0937-1.7644 2.3192-1.3252-0.9468 0.53703-1.8894 1.0812-2.8361 1.6183-0.0943 0.0536-0.38119 0.20746-0.28712 0.15345 0.76324-0.43828 1.5298-0.87086 2.2948-1.3063-1.4708 0.83247-2.9064 1.7046-4.4501 2.3953-0.72574 0.33222-1.4396 0.68732-2.1623 1.0255-0.77815 0.34472-1.5538 0.69357-2.337 1.0273-0.84569 0.34305-1.7132 0.62549-2.5773 0.91991-0.91006 0.30506-1.818 0.6182-2.7402 0.88605-0.93813 0.28476-1.8759 0.56948-2.8174 0.84333-0.93376 0.26537-1.8728 0.51425-2.8401 0.63171-1.1608 0.18596-2.3293 0.28293-3.5039 0.34203-1.3152 0.0616-2.6256 0.17515-3.9344 0.31619-1.3759 0.099-2.7557 0.1491-4.1264 0.30953-1.4664 0.16383-2.9368 0.25287-4.4072 0.3738-1.5215 0.14639-3.0446 0.28086-4.5734 0.32647-1.4366 0.0429-2.8744 0.0174-4.3111 0.0604-1.3995 0.0405-2.7971 0.11977-4.1964 0.1605-1.5523-9e-4 -3.1046 1.1e-4 -4.6569-4e-3 -1.6734-3e-3 -3.347-0.0145-5.0199-0.058-1.8425-0.0544-3.6834-0.14814-5.5259-0.19842-1.8091-0.0673-3.6138-0.20244-5.4099-0.43151-1.7819-0.1986-3.5626-0.40714-5.3467-0.58502-1.8701-0.17197-3.7402-0.34391-5.6142-0.47142-2.0273-0.14281-4.0459-0.37061-6.0565-0.66416-1.973-0.27577-3.9396-0.59876-5.8762-1.0671-1.6265-0.38532-3.251-0.78183-4.8494-1.2701-1.4692-0.43295-2.9436-0.84685-4.3816-1.3752-1.5931-0.58043-3.1642-1.2244-4.6842-1.972-1.4924-0.72622-2.9713-1.479-4.3949-2.3303-1.3815-0.80409-2.7617-1.6185-4.0573-2.5528-1.1296-0.80217-2.2726-1.5996-3.2914-2.5374-0.75418-0.72865-1.5285-1.4431-2.2225-2.2278-0.47858-0.57542-0.96225-1.1472-1.4191-1.7396-0.40157-0.604-0.76587-1.2259-1.1065-1.865l2.6292-1.4717z"/>
  <path d="m73.473 230.05c0.26703-1.125 0.90172-2.0804 1.5696-3.0099 1.003-1.3741 2.3668-2.3905 3.7624-3.3472 2.3483-1.4224 4.7-2.8855 7.2472-3.9441 0.35918-0.14926 0.72596-0.28022 1.0889-0.42034 2.0612-0.78257 4.2315-1.1811 6.4109-1.4785 1.6306-0.20012 3.2742-0.25229 4.9155-0.28227 1.0152-0.0845 1.9201 0.1171 2.865 0.44378 0.60685 0.28347 1.1901 0.61557 1.6905 1.0582 0.37328 0.27529 0.66091 0.61622 0.84615 1.0357 0.24642 0.49055 0.38799 1.0024 0.46549 1.5419 0.10203 1.1423 0.0773 2.2916 0.0749 3.4371 0.0678 1.8508-0.26548 3.6624-0.76329 5.4376-0.37361 1.1837-0.79426 2.3622-1.4082 3.4491-0.26597 0.47083-0.52761 0.84401-0.82708 1.2908-0.85647 1.1448-1.7286 2.2783-2.6224 3.3954-0.95214 1.1738-1.8177 2.4113-2.6692 3.6564-0.84932 1.225-1.5722 2.5289-2.3194 3.8151-0.53105 0.90682-1.1209 1.7776-1.6266 2.6985-0.34529 0.58482-0.64412 1.1819-0.86632 1.8212-0.11904 0.43211-0.31722 0.90156-0.22575 1.3554 0.18149 0.24395 0.59408 0.18786 0.86932 0.19705 0.5146 7e-3 1.0293-4.8e-4 1.5439-2e-3 0.57867 0.0572 1.1527 0.12265 1.7219 0.23925 0.24483 0.031 0.47685 0.11536 0.71248 0.18333l-2.4952 1.6785c-0.22916-0.0645-0.45886-0.12765-0.69459-0.16541-0.55448-0.10601-1.1188-0.1656-1.6828-0.19196-0.52096 5e-3 -1.0426 0.0155-1.5632-9e-3 -0.43382-0.0367-0.86427-0.0897-1.0787-0.51383-0.14243-0.50601 0.02783-1.0214 0.16127-1.5151 0.23531-0.6514 0.47938-1.2852 0.86288-1.872 0.51294-0.92943 1.0953-1.8143 1.6542-2.7178 0.74999-1.294 1.4904-2.5978 2.3258-3.8406 0.84737-1.2497 1.7045-2.4948 2.6527-3.6736 0.89188-1.1146 1.7587-2.2469 2.6316-3.3758 0.27397-0.39241 0.6113-0.86232 0.85638-1.27 0.63856-1.0623 1.0713-2.2267 1.4471-3.3996 0.50939-1.7441 0.85929-3.528 0.77349-5.3531-0.0102-1.1257-5e-3 -2.2545-0.10624-3.3767-0.0716-0.5149-0.20181-1.0005-0.4459-1.4649-0.15704-0.38436-0.44206-0.66943-0.76897-0.92573-0.47758-0.4096-1.0308-0.72758-1.6143-0.96934-0.90093-0.30674-1.8167-0.44633-2.7748-0.37989-1.6221 0.0213-3.2464 0.0748-4.8565 0.28417-2.162 0.30596-4.3125 0.71756-6.3497 1.5189-1.0467 0.41947-1.1104 0.42459-2.12 0.90945-0.3322 0.15955-1.2858 0.71137-0.98735 0.4968 0.48317-0.34739 1.0356-0.59076 1.5459-0.89839 0.58809-0.35452-2.3232 1.3229-1.7763 1.044-1.3832 0.93248-2.7505 1.9037-3.7657 3.2401-0.65129 0.88947-1.3058 1.7873-1.5684 2.8727l-2.7187 1.296z"/>
  <path d="m91.665 260.46c0.92686-0.46053 2.5688-1.363-1.5241 0.89332-0.11256 0.062 0.21861-0.13506 0.32453-0.2075 0.26859-0.18368 0.28908-0.21233 0.52507-0.41618 0.24615-0.14963 0.41614-0.78613 0.32964-0.28631 0.82283-0.45723 1.643-0.91916 2.4685-1.3717 0.06702-0.0367-0.1322 0.0774-0.19252 0.12402-0.22085 0.1707-0.39603 0.38877-0.49504 0.64629-0.04093 0.22918 0.13649-0.13853 0.10824-0.12364-1.5938 0.83987-3.3498 1.9471-2.3906 1.3436 0.79264-0.80903 0.25121-0.27386 2.8699-1.459 0.04395-0.0199 0.08844 0.0387 0.13356 0.0558 0.04175 0.0158 0.08405 0.0306 0.12698 0.0429 0.1102 0.0316 0.16392 0.0365 0.27834 0.055 0.10069 0.0496 0.22902-0.0149 0.32979 0.0294 0.38047 0.16713 0.30002 0.65327 0.26044 0.96809-0.29912 0.97353-0.65005 1.9313-0.94466 2.9071-0.03195 0.0845-0.27273 1.0846-0.04642 1.0782 0.02756-7.1e-4 0.23912-0.21201 0.26139-0.23339-3.9001 2.3057-2.4593 1.5951-1.7466 0.59037 0.34077-0.4804 0.60882-1.0024 0.88674-1.5189 0.49335-0.97034 0.92976-1.9736 1.2918-2.9987 0.02646-0.0968 0.40505-1.2804 0.18465-1.2253-0.32145 0.9855-0.04861 0.0739 2.4741-1.2416 0.06409-0.0334-0.12189 0.078-0.17814 0.12308-0.13953 0.11183-0.32719 0.30045-0.45253 0.42212l-2.7809 1.134c0.86125-0.87568 2.3565-2.709 3.5191-2.0161 0.04157 0.05 0.09461 0.0925 0.12479 0.14989 0.22091 0.41972-0.10394 0.99312-0.17754 1.4042-0.36141 1.0429-0.81927 2.0546-1.2975 3.0499-0.27421 0.52151-0.53352 1.0528-0.85329 1.5496-0.0064 0.0101-0.48091 0.70588-0.5331 0.73998-0.91878 0.60046-1.8886 1.1217-2.8329 1.6826-0.08679 0.01-0.17454 0.0447-0.26024 0.0285-0.66466-0.12609-0.37417-1.0718-0.27606-1.4642 0.28744-0.95951 0.59678-1.9122 0.93157-2.8567 0.11541-0.6014 0.19616-0.50442-0.37552-0.59931-0.14728-0.0366-0.28662-0.0845-0.43109-0.12942-0.03799-0.0118-0.14891-0.0106-0.11514-0.0313 3.1879-1.9582 3.2591-2.0199 2.4338-1.379-0.37036 0.5314-2.8444 2.628-3.2528 1.2204 0.1471-1.396 2.7664-2.1545 3.3461-2.5371 0.51785 0.19058 0.35679 0.66693 0.05805 1.0006-1.226 1.2364-2.9308 1.9238-4.4794 2.7019l2.3689-1.8455z"/>
  <path d="m55.186 206.47c-0.75658-0.61889-1.6228-1.0897-2.504-1.5122-1.2708-0.4893-2.6067-0.79818-3.9298-1.1182-1.7313-0.45878-3.5166-0.61327-5.3-0.7113-1.696-0.0738-3.3941-0.0711-5.0913-0.0675-1.1752 0.022-2.3429 0.16953-3.4597 0.53346-0.96786 0.40777-2.7543 1.339 1.4838-0.90539 0.11372-0.0602-0.21276 0.14475-0.31139 0.22676-0.27511 0.22877-0.30123 0.29022-0.52071 0.56566-0.52504 0.81342-0.80804 1.7351-0.99708 2.672-0.14694 0.83739-0.17644 1.6877-0.18579 2.5355-0.0019 0.47785 0.0048 0.95568 0.0086 1.4335-0.04891 0.38649 0.16438 0.66422 0.3329 0.98967 0.16217 0.32429 0.41014 0.27706 0.55448 0.6167-2.9786 1.8718-1.8575 1.6729-3.7788 1.4448-0.69944-0.0811-1.3771-0.28915-2.0678-0.4257-1.2446-0.20567-2.4898-0.40783-3.7332-0.62116-1.6468-0.25823-3.3044-0.43637-4.9679-0.54632-1.4676-0.0843-2.938-0.0969-4.4076-0.0989-0.81639-0.0302-1.6303 0.0811-2.3812 0.40088-1.0625 0.68414 0.35878-0.2383 2.1194-1.1558 0.08256-0.043-0.14168 0.12034-0.20545 0.18747-0.21767 0.22914-0.35403 0.50537-0.49898 0.78077-0.33913 0.74187-0.55579 1.5305-0.77965 2.3114-0.19373 0.83373-0.41369 1.6607-0.6511 2.4833-0.22466 0.66958-0.43652 1.3445-0.67349 2.0102-0.2063 0.62939-0.50415 1.2229-0.77992 1.8244-0.20506 0.46326-0.41447 0.92428-0.67614 1.3596-0.2194 0.27562-0.38489 0.58194-0.56111 0.88389-0.08652 0.13848-0.13306 0.29134-0.17735 0.44615l-2.7306 1.2934c0.032099-0.17735 0.06375-0.35488 0.14122-0.52006 0.16523-0.31602 0.33232-0.62992 0.55042-0.91534 0.32369-0.38681 0.50089-0.87028 0.71518-1.3197 0.28469-0.59112 0.5734-1.1853 0.78987-1.8039 0.26157-0.65264 0.43516-1.3365 0.69043-1.9919 0.23661-0.8239 0.48766-1.6444 0.65952-2.485 0.21776-0.79375 0.44147-1.5886 0.74306-2.3561 0.137-0.2872 0.26358-0.60312 0.45357-0.86225 0.75099-1.0243 2.0949-1.4648 3.2418-1.9963 0.78287-0.25213 1.5966-0.33511 2.4197-0.29341 1.4634 0.0173 2.9273 0.0455 4.3883 0.13527 1.672 0.11973 3.3389 0.30021 4.9943 0.56281 1.2568 0.20429 2.5159 0.39491 3.7716 0.60608 0.69125 0.13897 1.3755 0.3249 2.0793 0.39144 0.22758 0.0301 0.46153 0.0797 0.6913 0.0899 1.035 0.0455 2.6857-1.5679-2.1158 1.5035 0.02512 0.0289 0.05287 0.0558 0.07538 0.0868 0.03447 0.0473-0.09296-0.0723-0.13903-0.10884-0.1581-0.12559-0.29348-0.26147-0.38441-0.44352-0.18446-0.3594-0.44478-0.68454-0.3982-1.1118-0.0017-0.48228-0.0045-0.9646 0.0036-1.4468 0.01897-0.86598 0.05124-1.7342 0.18604-2.5916 0.17617-0.96817 0.44607-1.9103 0.92738-2.7797 0.98601-1.5087 2.8041-2.235 4.4687-2.8607 1.1333-0.31247 2.3038-0.43857 3.4808-0.4404 1.6954 5e-3 3.3918 8e-3 5.0854 0.0927 1.7988 0.11204 3.5959 0.28772 5.3436 0.74477 1.3462 0.32099 2.7102 0.6269 3.9911 1.1541 0.89951 0.43942 1.7703 0.93557 2.5708 1.535l-2.5541 1.5881z"/>
 </g>
</svg>
